<?xml version="1.0" encoding="utf-8"?>
<!-- Generator: Adobe Illustrator 25.2.0, SVG Export Plug-In . SVG Version: 6.00 Build 0)  -->
<svg version="1.1" id="Layer_1" xmlns="http://www.w3.org/2000/svg" xmlns:xlink="http://www.w3.org/1999/xlink" x="0px" y="0px"
	 viewBox="0 0 1280 316" style="enable-background:new 0 0 1280 316;" xml:space="preserve">
<g transform="translate(0.000000,316.000000) scale(0.100000,-0.100000)">
	<path d="M8243.9,2896.2c-55.4-32.6-137.4-123-184.1-201.8c-9.3-16.4-33.4-47.2-53.4-69.2c-20-21-49.4-58.4-63.9-83.5
		c-15.6-24.1-61.8-78.1-104-119c-41.1-40.9-113.9-114.9-160.2-164.6c-129.5-136.9-450.4-442.2-611.3-579.8
		c-10.6-8.9-30.7-26.6-43.3-38.8c-13.7-13.3-40.2-35.5-59.3-50c-20.1-15.6-57.2-47.7-83.5-73.2c-50.7-48.7-178.7-155.3-249.8-209.8
		c-24.4-17.8-81.6-63.4-127.2-100.1c-46.6-36.7-87.9-70-94.3-74.5c-5.3-4.4-24.4-20-42.4-34.4c-16.9-14.4-67.9-50.2-111.4-80.3
		c-43.5-30.2-92.4-63.7-108.3-74.8c-15.9-11.2-33-20.2-38.4-20.3c-5.4-0.1-17.1-8-24.4-17.8c-8.4-9.9-86.1-54.9-174.6-100.1
		c-358.3-184.3-711.3-270.3-713.6-174.3c-0.4,18.3,51.3,113.4,82.8,150.9c15.7,19.8,12.1,35.9-6.2,35.5
		c-9.7-0.2-25.6-14.6-34.9-32.1c-9.3-18.6-27.2-37.3-38.9-43c-12.8-6.8-33.8-33.2-47.1-60.5c-21.6-43.7-23.6-53.4-10.8-92
		c30.2-93.2,166.5-104,386-30.9c203.4,68.4,217.4,73.1,253.6,91.2c19.2,9.1,64.1,29.6,99.3,45.5c153.8,68.4,396.2,224,598.5,386.3
		c66.8,52.3,131.4,103.4,144.1,112.4c49.9,35.7,163.2,129,228.7,187.7c38,34.3,93,82,121.6,106.5c29.7,23.4,86.8,74.3,126.9,110.9
		c41.2,37.7,107.8,97.5,148,133c67.7,58.8,271.3,256.7,452.7,439c41.1,40.9,76,73,78.2,70.9c2.2-2.1-8-28.2-21.3-57.7
		c-13.4-28.4-35.8-86.1-47.7-128.5c-13.1-41.3-26.2-80.5-30.3-87c-12.5-17.6-50.6-144.7-61.1-203.2c-5.8-29.3-16.8-67.3-25-82.6
		c-8.2-16.4-14.2-37-14-46.7c0.2-9.7-6.8-32.5-15-48.9c-8.2-17.5-15.2-42.4-14.9-55.4c0.3-12.9-3.5-35.7-9.6-52
		c-5-15.2-16.6-74.9-24.9-133.3c-17.6-122.4-28.1-137.7-94.7-149c-26.9-3.9-54.8-12.1-61.1-17.6c-9.5-7.8-168.8-74.1-230.8-96.1
		c-28.9-10.4-106.2-74.8-105.8-88.8c0.2-6.5,4.8-19.3,10.4-27.8c12.3-19.1,65.9-4.9,65.4,16.6c-0.2,8.6,6.1,16.3,14.7,16.5
		c8.6,0.2,57.8,20.8,110.1,46.8c51.2,26,120.6,58.9,152.6,74.8c32,15.9,71.3,41.6,88.2,57.1c31.6,32,31.6,32,19.7-56.7
		c-34-253.3-50-537.5-35-625.7c7.4-40.8,14.1-50.4,35.8-55.3c45.6-10.8,49.5,5.5,44.5,172.6c-3.3,93.8-0.3,196.4,8,257
		c7.3,56.3,18.2,146.1,23.4,199.1c29.3,313.6,79.5,523.1,242.1,998.5c20.2,59.8,42.4,125.1,48.4,144.7c6,18.5,14.3,34.9,18.6,35
		c5.4,0.1,8.5,7.8,8.2,16.4c-0.9,36.7,124.6,208,264.6,361.2c205.1,226,223.9,254.5,174.7,280.4
		C8288.7,2918.9,8283.3,2918.7,8243.9,2896.2z M4796.2,2746.4c-17.1-6.9-41.7-16.1-53.4-21.8s-62.1-23-112.4-38.2
		c-106-33.8-266.4-98-433-173.1c-64.1-29.6-153.8-69.4-197.6-87.7c-43.8-18.3-89.7-38.8-101.5-43.4c-88.6-40.9-150.6-68.3-267-117.4
		c-35.3-13.8-65.1-29.6-67.2-33.9c-2-5.4-8.4-8.8-14.9-9c-9.7-0.2-63.1-23.1-184.8-79.9c-23.5-11.3-63.1-26.3-88.8-34.5
		c-24.6-8.1-50.2-21.7-56.5-30.5c-6.3-7.7-16.9-14.4-23.4-14.6s-42.8-15-81.2-33.2c-112.1-52.3-246.7-111.5-321.5-142.4
		c-38.5-14.9-110.1-43.6-160.4-64.2c-50.3-19.5-104.7-43.5-122.9-51.4c-38.4-17.1-239.5-97.3-379.6-151.3
		c-55.6-20.7-111.2-42.5-123-48.2c-31-14.8-198-70.5-209.9-70.7c-5.4-0.1-27.9-8.2-50.3-18.4c-21.3-10.2-47-20.5-55.6-22.9
		c-8.6-1.3-42.9-11.8-75-22.3c-100.7-32.6-472.8-131.9-563-151.3c-206.2-44.8-398.9-63.3-591.1-59.2c-101.5,3-210.6,4.8-241.8,4
		c-55-0.2-57.2,0.8-51.3,25.8s4.8,26-45.7,17.3c-119.3-19-87.4-92.7,46.8-109c24.9-3.7,55.3-12.7,68.5-20
		c13.1-8.3,26.1-10.2,29.3-5.8c3.1,5.5,33.3,6.2,67.9,2.7s104.8-6.2,156.6-5c59.3,0.3,95-3.2,97.4-10.7c3.5-9.6,11-9.5,28,0.7
		c12.8,7.9,28.9,10.4,34.4,7.3c6.5-3.1,10.8-1.9,10.7,3.5c-0.1,5.4,47.2,14.1,105.3,18.7c57.1,5.7,148.5,18.6,201.1,28.5
		c53.7,11,121.4,24.4,150.4,29.4c70.9,13.5,485.8,132.3,621.8,177.5c58.9,19.7,122.1,40.6,141.4,45.4c45,12.9,291,108.3,436.4,167.8
		c65.2,27.4,158.2,65.2,208.5,83.7c207.5,78.2,551.6,224.4,689.2,293.5c29.9,14.7,113.1,53.4,186.9,85.3
		c73.7,33,181.6,80.9,240.3,108.2s141,62.7,181.6,79.8c41.7,16.1,105.8,44.6,144.2,62.7c195.3,93.1,715.8,308.2,744.9,308.8
		c14,0.3-0.6-20.5-17.8-25.2c-26.8-7.1-28.4-29.8-1.5-29.2c20.5,0.5-4.8-23.9-65.5-60.9c-27.6-17.9-30.8-19.1-24.8-2.7
		c10.1,28.3,2.7,24.9-135.5-64.7c-71.2-45.9-152.1-96.4-181.9-112.2c-28.7-16.9-68.1-39.4-86.2-50.6c-17-11.2-43.7-24.8-57.6-29.4
		s-58.7-29.4-100.1-55.2c-41.5-25.8-95.8-56.2-120.4-67.6c-25.6-12.5-45.8-25.9-45.7-31.3c0.1-4.3-5.2-8.8-11.7-8.9
		c-22.7-0.5-106.8-46.7-112.9-62c-3-8.7-13.6-16.5-24.4-16.8c-10.8-0.3-24.6-8.1-32-16.9c-7.3-8.8-20.1-16.7-29.8-16.9
		c-8.6-0.2-21.4-8.1-27.6-17.9c-6.3-8.8-21.2-17.8-33-20.2c-11.8-2.4-22.4-9.2-22.3-15.6c-0.9-7.6-1.7-18.4-2.7-24.9
		c-0.9-8.7-7.4-7.7-19.5,1.7c-14.3,11.5-18.6,11.4-21.6,1.7c-3.1-7.6-11.5-14.3-19.1-14.5c-8.6-0.2-17.2-4.7-20.3-10.2
		c-3.1-5.5,13.1-8.3,35.8-6.7c45.2,3.2,80.3,25.6,69.1,42.6c-4.5,6.4,0.9,8.7,15,4.7c12-4,24.9-1.6,29,5
		c3.1,5.5,15.9,11.2,27.8,11.4c10.8,0.3,20.4,3.7,20.3,9.1c-0.1,4.3,22.2,18.9,51,33.6c27.7,13.6,57.6,30.5,66.1,35
		c8.5,5.6,107.6,58.6,218.5,117.4c414.7,219.1,549.8,299.9,689.6,414.4c39.2,32.2,92.1,75.5,118.6,95.6c25.4,20,51.8,45.5,57,56.4
		C4920.5,2737.4,4858.3,2768.3,4796.2,2746.4z M4617.4,2549c-3.1-5.5,1.3-10.8,10-10.6c9.7,0.2,17.1,5.8,17,11.2
		c-0.2,6.5-4.6,10.7-10,10.6C4627.9,2560.1,4620.4,2555.6,4617.4,2549z M9504.1,2584.7c-35.1-21.3-57.3-42.4-114-107.4
		c-29.4-33.1-97.9-105.9-151.6-161.1s-106.4-112.6-115.7-127.9s-55.4-75.8-101.5-135.1c-93.2-119.8-183.1-243.9-182.9-252.5
		c0.1-3.2-11.4-18.6-26.2-34.1s-26.3-30.8-26.2-35.1c0.1-4.3-13.5-24.1-29.2-42.8c-28.3-37.4-45-59.3-140.1-194.3
		c-79.3-114.1-302.8-339.5-412.2-417.6c-145.4-103.8-288.6-166.5-384.5-168.7c-51.8-1.2-65.1,16.8-44.4,54
		c18.6,33.9,8.3,58.5-11.5,29.9c-7.3-9.9-23.2-23.2-34.9-30c-39.4-22.5-41.6-69-5.3-96.2c69.2-52.3,177.9-39,352.9,45
		c91.8,43.2,236.2,145.8,262.2,186.4c4.2,6.6,10.6,8.9,13.9,4.6c4.4-3.1-3.7-24.9-17.2-49c-41.6-67.9-69.5-166.7-68.9-238
		c-0.3-77.7,12.1-102.2,64.6-132.3c74.4-44.7,237.5-3.1,306.8,77.3c55.7,62.8,32.7,76.3-52.5,31.1c-78.9-41.8-164.8-58.9-204.1-40.4
		c-29.5,13.3-31.7,17.6-32,74.8c-0.4,107.9,59.4,229.1,252.3,514.2c22.9,34,118.7,138.8,212.6,231.6
		c410.3,406.7,576.4,593,688.8,769.4c104.1,163.2,121.5,251.1,49,255.8C9538.3,2598.5,9516.8,2592.6,9504.1,2584.7z M9516.3,2478.2
		c-15.4-31.7-34.1-64.5-41.5-72.2s-25-38.4-40.5-67.9c-15.5-30.6-31.1-54.7-35.4-54.8s-29.5-29.8-56.7-66.1
		c-48.1-64.8-461.9-507.2-473.7-507.5c-20.5-0.5,2.2,43.2,71.3,135.5c42.9,58.2,86.8,119.7,96.1,136.1c10.4,16.4,24,35.1,30.3,40.6
		c6.3,6.6,41,48.4,77.7,93.5c36.7,45.1,69.2,84.7,73.5,88.1c4.2,3.3,32.6,37.5,64,77c66,84.6,185,209.4,199,209.7
		c6.5,0.2,10.6,7.8,10.4,17.5c-0.2,8.6,4,14.1,9.5,9.9c5.5-3.1,13-0.8,17.1,5.8c3.1,5.5,11.6,11.1,17,11.2
		C9540.9,2534.9,9532.8,2508.8,9516.3,2478.2z M3452.5,1831c0.1-5.4,7.8-10.6,16.4-10.4c8.6,0.2,16.1,5.8,15.9,11.2
		c-0.2,6.5-7.8,10.6-16.4,10.4C3459.8,1842,3452.3,1837.5,3452.5,1831z M3402.2,1813.7c-3-9.8-2.8-20.6,1.6-23.7
		c7.7-7.4,38.4,18.2,38.1,31.1C3441.5,1837.3,3409.3,1831.1,3402.2,1813.7z M2032.8,1395.2c-8.1-21.8-21.6-43.7-28-48.1
		c-7.4-4.5-27.2-36.3-43.7-69c-16.5-32.8-41.3-77.6-54.9-98.4c-13.5-20.8-23.8-41.6-23.7-47c0.1-4.3-11.4-20.8-25-37.3
		c-28.4-32-122.2-218.7-144.3-288.3c-20.1-62-19-111.6,3.7-156.4c30.5-59.7,50.7-43.1,51.9,41.1c0.7,61.5,7.7,87.6,50.8,179.3
		c49.3,106.9,117.8,222.9,176.4,302c89,117.6,143.1,249.4,102.1,248.4c-8.6-0.2-23.8,2.7-32.5,5.7
		C2052.5,1431.3,2044,1422.5,2032.8,1395.2z M12671,1499.9c-11.8-2.4-50.4-13.1-85.8-23.6c-35.4-10.5-100.8-28.3-144.8-39
		c-343.2-89-651.2-254.8-795-428.7l-23.1-27.5l-0.8,80.9c0.4,74.5-1.9,80.9-21.3,80.4c-14-0.3-32.9-22.4-59.9-70.5
		c-34.1-63.4-104.6-142.7-127.2-144.4c-4.3-0.1-20.7,8.1-36,17.5c-27.4,16.6-28.5,20.9-26.2,104.1c1.3,83.1,0.1,87.4-22.6,90.1
		c-13,1.9-29.4,10.1-36,18.6c-23.3,26.4-101.8,16-168.9-21.2c-133.2-74.3-136.9-236.3-5.5-269.9c39.1-11,73.3,5,120.6,55.7
		c38.9,41.9,42.2,42,58.2,4.6c31.9-72.6,111.6-64.3,199.2,18.7c28.5,27.6,54.9,49.9,59.3,50c11.9,0.3-15-141.7-32.6-174.5
		c-32.1-57.9,23.1-112.8,61.9-62.2c10.5,13.2,18.7,30.7,18.5,38.2c-0.2,7.6,7.2,16.4,15.7,20.9c8.6,3.4,15.8,15.5,15.5,27.3
		c-0.8,33.4,104.3,154.6,194.4,222.5c134.6,103.5,226.3,151,458.4,239.5c128.3,49.4,405.5,147.6,435.6,154.8
		c15,3.6,29.9,14.7,32.9,24.5C12759.3,1505.2,12729,1509.9,12671,1499.9z M11239.6,1101.6c0.6-27-36.1-71-69.3-82.6l-38.5-13.9
		l29.8-26.3l29.8-26.3l-25.6-13.5c-45.8-25.9-79,8.9-69.7,71.8c5.7,31.4,14.2,40.3,66.4,66.3
		C11224.4,1106.7,11239.4,1111.3,11239.6,1101.6z M3472.2,1220.7c-174.2-74.2-462.5-296.8-520.5-399.6
		c-14.5-27.3-29.1-49.2-30.2-47.1c-2.2,2.1,5.3,49.8,16.9,107.2c31.6,172.3,1.5,213.7-83.6,114.6c-28.4-33-59.9-69.4-70.4-81.5
		c-16.8-18.7-49.2-63.7-113.9-158.1c-55.3-81.2-118.2-112.8-149.3-76.9c-18.9,22.2-46.2,129.5-41.5,160.9
		c4.8,24.9-0.7,31.3-47.6,51.8c-29.5,13.3-57.9,29.9-62.4,37.4c-14.5,21.2-66.1,13.6-104.3-16.5c-20.1-15.6-40.4-27.9-45.7-28.1
		c-24.8-0.6-80.7-58-101.2-103.8c-57.3-131.9,5.5-235.1,130.2-212.8c37.6,6.3,58.9,20.8,110.5,72.7c35.8,36.5,66.5,64.1,67.6,63.1
		c1.1-2.1,8-18.2,16-36.3c13.8-34.2,62-67.6,95.5-66.8c31.3,0.7,116,67.5,136.7,106.8c10.3,19.7,22.9,35.1,29.4,34.1
		c6.5-0.9,13.8,7.9,15.7,19.8s10.2,26.1,18.7,30.7c8.5,4.5,14.7,18.7,14.4,29.5c-0.3,11.9,4.9,21.7,10.3,21.8
		c6.5,0.2,35,26.7,63.4,58.7l52.6,57.3l-5.4-46.5c-3.7-26-23.3-110.6-45.2-189.9c-49.7-182.5-52.5-199.8-35.9-218.8
		c29.9-33.8,51.1-17.1,79.5,60.1c54.7,154.5,200,309,452.7,482.2c209.3,142,351.9,179.8,434.4,111.6c28.6-24.2,43.6-18.4,42.8,17.2
		c-0.4,15.1-16,37.4-39.1,57.4C3704.9,1281.2,3605.7,1277.8,3472.2,1220.7z M2395.5,836.1c12-7.3,7.9-14.9-20.8-32.9
		c-20.2-13.4-41.5-23.6-49.1-23.8c-18.3-0.4-25.5-16.8-17.5-37.1c4.6-11.8,14.4-14.8,27.2-11.2c36.4,12.7,22.1-20-25.7-56.7
		c-76.3-61.1-145.6-49.8-147.3,23.5c-1.3,53.9,57.1,143.8,83.3,128.2c5.5-3.1,11.9-0.8,16.1,5.8
		C2270.2,845,2374.8,848.6,2395.5,836.1z M3901.2,1057c-20-23.1-75.8-79.5-123.3-124.8c-47.5-45.4-99.1-100.5-113.7-122.5
		c-14.6-23-36.7-44-49.6-47.6c-13.9-3.6-52-35.8-86.8-72.2c-53.7-56.3-100.5-85.5-101.1-61.7c-0.2,9.7,29.3,37.4,39,37.6
		c18.3,0.4,89,69,119.2,116.1c60.4,92.1,49.8,129.6-44.8,159.7c-60.9,20.2-78,12.2-169.6-82.8c-48.5-50.8-80.2-76.3-91.1-72.3
		c-23.9,8.1-27.9-6.1-33.2-104.4c-5.1-102.6,8.8-144.4,54.6-166c86.2-42.2,183,20.5,461.3,301.1c63.2,64.1,117.1,113.9,120.4,111.8
		c2.2-3.2-2.9-14.1-11.3-24c-23.1-28.6-59.8-121.2-59-151.4c0.3-14-3.7-26-9.1-26.1c-11.9-0.3-52.7-101.6-52-129.6
		c0.3-11.9-3.7-24.9-10.1-28.3c-19.1-12.3-10.5-58.5,13.5-70.9c33.8-16.5,60.1,15.4,78.7,95.7c8.9,34.7,20,69.5,26.2,77.2
		c11.5,14.3,275.9,153.2,281.5,146.9c2.2-1-2.9-15.2-10.1-30.5c-7.2-16.4-16.3-42.5-19.1-59.8c-2.8-17.3-10.6-53.1-16.5-80.2
		c-16.7-70.5-12.6-107.1,15-135.6c37.6-38,47-25.9,46.1,57.2c-1,41,4.1,99.4,11,128.7c5.8,30.4,13.3,76.9,15.9,105.1
		c4.3,45.4,9.5,53.1,50,78.9c71.3,44.8,146.1,122.1,138,143.5c-4.6,12.8-14.4,15.9-30.5,10.1c-21.4-8.1-41.6-20.4-161.6-102
		c-30.8-20.1-99-59.5-153.4-86.7c-54.4-28.3-104.4-57.5-112.9-64.2c-31.7-27.7-23.8,1.6,35.7,135.7
		c67.7,149.4,70.2,180.8,18.5,179.6C3947.7,1098,3926.5,1084.6,3901.2,1057z M3553.9,866.5c7.8-8.5-25.5-62.1-64.5-104
		c-41.1-43.1-100.7-76.8-137.4-77.7c-46.4-1.1-41.3,13.1,30,101.1C3435.6,849.7,3526.3,891.7,3553.9,866.5z M3411.9,613.9
		c-1.8-15.2-12.5-19.7-43.8-20.5c-45.3-1.1-65.2,21.1-25.5,29.6C3398.5,635.1,3413.7,632.3,3411.9,613.9z M10229.1,1211.8
		c-14.7-18.7-27.1-42.7-26.8-53.5s-3.8-23.8-10.2-27.2c-5.3-3.4-10.7-2.4-10.9,4.1c-0.6,24.8-60.3,39.6-109.6,25.5
		c-59-15.4-84.4-34.4-126.3-89.3c-36.6-49.4-38.2-73.2-7-114.6c45.7-60.4,125.8-71.5,181.8-22.7c12.7,10,13.8,7.9,7.9-14.9
		c-4-15.2-17.7-72.7-30.4-129.1c-21.6-93.3-35-119.5-60.8-121.2c-4.3-0.1-38.4-18.2-74.6-40.6c-87.2-54.9-183.1-154.3-190.7-196.6
		c-3.9-18.4-13.7-58.6-21.6-90.1l-16-55.4l34.7-52.1c65.9-96.7,137.4-104.7,248.9-29.8c12.7,8.9,23.2,21,23.1,26.4
		c-0.1,5.4,8.1,20.7,18.7,32.8c32.6,38.5,54,135.1,85.1,375.4c3.7,27.1,11.7,54.2,16.9,61.9c5.2,7.7,7.1,18.5,2.7,24.9
		c-20.1,30.8,52.6,286.1,115.6,408.5c39.3,74.3,39.2,77.5,20.5,94.4C10271.3,1253.8,10259.5,1250.2,10229.1,1211.8z M10117.5,1091.5
		c-6.2-12-18.8-26.3-29.5-32c-14.9-9-15.9-13.3-3.8-23.8c9.9-9.5,13.2-10.5,13-0.8c-0.2,6.5,6.2,9.9,14.9,6.8
		c7.6-3.1,17.2,2.6,20.2,11.3c4.1,9.8,13.6,17.6,23.3,17.8c14,0.3,14.1-2.9,3.8-23.7c-24.8-44.8-44.9-63.6-66.5-64.2
		c-12.9-0.3-27.9-6.1-34.2-12.7c-14.7-15.5-65,10.3-76.4,37.1c-5.8,17.1,41.6,65.7,96,96.1
		C10116.7,1125,10132,1119.9,10117.5,1091.5z M10065.8,580.9c-6.7-37.9-12.2-80.1-14-95.3c-0.7-15.1-4.6-34.6-7.6-43.3
		c-4.1-8.7-8.9-34.7-12.7-58.6c-8.4-56.3-47.9-120.9-89.5-142.4c-49-26-66.4-23.1-100.7,13.8c-83,88.7-29.7,208.7,159,351.2
		C10084.2,668.8,10079.9,670.8,10065.8,580.9z M8892.9,1175.1c-4.2-4.4-7.1-17.4-6.8-30.4c0.5-20.5-0.6-20.5-14-2.5
		c-14.5,18-17.6,15.8-46.7-34.5c-17.7-29.6-35-71-38.9-91.6c-3.8-20.6-30.6-75.2-58.7-121.2c-43.7-71.2-49.7-88.6-38.6-101.3
		c28.8-32.8,66.1-12.5,164.1,91.3c24.3,24.3,133.4,111,179.1,141.3c28.7,19,43,6.4,19.9-19c-10.5-13.2-36.4-105.5-44.8-159.7
		c-9.4-57.4,20.3-83.7,91.5-82c65.8,1.5,85.6,30.1,27.1,39.5c-53.1,8.5-55.8,32.1-18,124.8c37.8,91.5,47.8,171.6,24.7,189.4
		c-39.6,32.5-172.9-37.5-226-118.6c-40.6-62.5-64.2-70.6-42.8-16.1c8.1,21.8,26.7,60,40.1,85.1c30,54.7,36.4,105.5,13.6,109.3
		C8907.8,1180.8,8897.1,1179.5,8892.9,1175.1z M9499.1,1140.7c-7.4-4.5-33.2-10.5-56.9-14.3c-34.4-5.1-51.4-17.4-87.1-59.2
		c-25.2-29.7-45.1-57.2-44.9-62.6c0.1-4.3-10.1-31.5-22.3-59.9c-36.8-87.2-33.7-128.1,14.3-151.8c30.6-15.5,97.9,14.2,148.5,66.1
		c19,18.8,34.8,34.3,37,34.3s3.8-24.7,4.5-54.9c1.1-46.4,5.7-59.2,32.1-80.2c36.3-29.4,94.8-40.9,140.9-25.8
		c48.2,15.2,43.3,39.9-10.8,48.3c-23.9,4.8-55.5,18.1-67.6,29.7c-25.3,22.1-34.2,78-15.1,90.3c6.4,3.4,10.4,15.4,10.2,26.1
		c-0.3,11.9,8.7,41.2,18.9,67.4c16.4,37.1,17.1,51.1,7,68.2c-6.8,12.8-11.5,29.9-10.6,39.7
		C9601.8,1133.4,9533.1,1160.9,9499.1,1140.7z M9524.1,1084.1c0.1-5.4-124-95.7-131.6-95.9c-21.6-0.5,37,79.6,66.9,91.1
		C9477.7,1086.2,9524,1090.6,9524.1,1084.1z M9519.4,1011.7c-13.6-16.5-15.6-25.2-6.9-28.2c23.9-8.1,1.9-36.6-48.2-61.6
		c-26.7-13.6-65-36.1-85.2-49.5c-46.7-33.5-54.3-32.6-44.4,5.4c14.9,56.5,27.5,70.8,102,112.5
		C9521.9,1039.8,9548.8,1045.8,9519.4,1011.7z M10737.9,1143.8c-15.8-17.6-28.6-24.4-33.1-17c-10.1,16-78.8-0.8-123.4-29.9
		c-46.7-32.4-77.2-67.6-93.4-111.2c-7.1-18.5-34.4-50.4-60.9-71.6c-26.5-21.1-51.8-46.5-57-56.4c-5.1-10.9-16.9-16.6-25.6-13.5
		c-18.5,7.1-22.1-23.2-4.6-33.6c14.2-8.3,63,29.5,63.6,47.9c-0.2,7.6,5.1,10.9,10.6,7.8c6.6-4.2,18.4-0.6,26.8,6
		c12.7,11.1,16,10.1,16.4-7.2c0.8-32.4,32.9-67.2,60.9-66.6c31.3,0.7,85.5,37.6,130.6,89.4c38.9,45.2,40.1,40.9,20.5-90.2
		c-7.4-50.9-13.9-96.4-12.7-100.7c6.2-35.5-2.6-71.3-22.8-87.9c-56.2-44.5-138.1-139.2-153.4-176.3c-9.2-21.8-28.8-59-42.3-81.9
		c-30.1-51.4-23.6-99.8,19.9-159.3c58-80.7,177.3-61.7,212.9,33c13.2,34.8,44.7,256.8,41.6,297.7c-0.5,20.5-2.1,43.1-1.2,49.6
		c0.8,10.8,80.4,71,95.5,71.3c3.2,0.1,13.8,10,22.1,22.1s21.1,22.1,27.5,22.2c12.9,0.3,27.2,38.4,17.2,46.8
		c-8.8,8.4-88.4-51.7-88-66.8c0.2-7.6-7.2-14.2-15.9-14.4c-7.5-0.2-19.2-9.1-25.5-18.9c-20.6-40.4-24.8,0.5-10.8,139
		c6.8,78.9,14.8,151.4,16.8,160.1c2,8.7,6.7,35.8,11.6,59.6c3.8,23.8,15.8,63,26,85.9c24.6,54.5,24.3,68.6-3,81.9
		C10766.4,1170.4,10758.9,1167,10737.9,1143.8z M10722.5,1063.6c0.6-23.7-162.6-199.1-186.3-199.7c-12.9-0.3-14.2,8.3-9.7,46.2
		c8.4,56.3,14.7,64,70.2,91.2c25.6,11.4,62.9,34.9,83,51.6C10723,1089.5,10721.9,1089.5,10722.5,1063.6z M10653.2,519.2
		c-13.7-198.9-49.6-322.8-93.9-323.8c-23.7-0.6-59.3,43.9-72.3,90c-13,49.3-13.2,54.7,10,80.1c12.6,14.3,32.4,43.9,42.7,65.8
		s31,56.8,46.7,78.8c15.7,20.9,29.1,46,31.1,54.7c1.9,11.9,19.9,26.4,38.1,31.1C10657.9,597,10656.6,561.3,10653.2,519.2z
		 M10974,877.4c-1-5.4-0.8-11.9,0.4-16.2c0.1-5.4-5.2-8.8-12.7-8.9c-14-0.3-49.4-55.1-48.9-75.6c0.2-6.5,7.8-11.7,16.5-11.5
		s16.1,4.7,16,10.1c-0.1,5.4,16.6,27.4,37.7,49.4c35.8,37.5,39.6,61.4,7.2,60.6C10981.4,885.1,10973.9,881.7,10974,877.4z"/>
</g>
</svg>
