<?xml version="1.0" encoding="utf-8"?>
<!-- Generator: Adobe Illustrator 25.2.0, SVG Export Plug-In . SVG Version: 6.00 Build 0)  -->
<svg version="1.1" id="Layer_1" xmlns="http://www.w3.org/2000/svg" xmlns:xlink="http://www.w3.org/1999/xlink" x="0px" y="0px"
	 viewBox="0 0 1189.2 335.7" style="enable-background:new 0 0 1189.2 335.7;" xml:space="preserve">
<g transform="translate(0.000000,316.000000) scale(0.100000,-0.100000)">
	<path d="M8109.5,3095.8c-54.3-34.4-133.3-127.4-177.5-207.7c-8.8-16.7-31.9-48.3-51.1-70.9c-19.3-21.6-47.5-60-61.2-85.5
		c-14.8-24.6-59.2-80.1-100.1-122.3c-39.8-42.2-110.1-118.5-154.8-169.7c-125-141-435.8-456.6-592.2-599.3
		c-10.3-9.2-29.8-27.6-42-40.2c-13.3-13.7-39-36.8-57.6-51.9c-19.6-16.2-55.6-49.5-81.1-75.9c-49.1-50.3-173.6-161-242.9-217.8
		c-23.8-18.6-79.5-66-123.9-104.2c-45.4-38.2-85.6-72.8-91.8-77.5c-5.2-4.6-23.7-20.8-41.3-35.8c-16.4-14.9-66.2-52.4-108.7-83.9
		c-42.5-31.6-90.3-66.7-105.8-78.3c-15.5-11.7-32.3-21.3-37.7-21.5c-5.4-0.3-16.8-8.5-23.8-18.6c-8.1-10.2-84.3-57.7-171.3-105.7
		c-352.1-195.8-702.2-293.2-707.6-197.3c-1,18.3,47.6,115,77.9,153.5c15.1,20.3,10.9,36.3-7.3,35.3c-9.7-0.5-25.1-15.4-33.8-33.2
		c-8.7-18.9-26-38.2-37.5-44.2c-12.6-7.2-32.7-34.3-45.1-62c-20.2-44.4-21.9-54.1-7.8-92.3c33.2-92.2,169.8-98.6,386.8-18.4
		c201.1,75,214.9,80.1,250.5,99.4c18.9,9.7,63.1,31.7,97.8,48.7c151.5,73.3,388.7,236.7,585.7,405.5c65.1,54.4,128,107.6,140.4,117
		c48.7,37.3,158.9,134.2,222.5,195c36.9,35.5,90.3,85,118.1,110.4c28.9,24.3,84.3,77.1,123.2,115c40,39,104.6,100.9,143.6,137.7
		c65.8,61,262.8,265.4,438.2,453.4c39.8,42.2,73.6,75.4,75.9,73.4c2.3-2-7.1-28.4-19.4-58.4c-12.5-28.8-33-87.2-43.5-130
		c-11.8-41.7-23.6-81.3-27.5-87.9c-11.9-18-45.9-146.3-54.5-205.1c-4.8-29.5-14.6-67.8-22.3-83.4c-7.7-16.7-13-37.4-12.5-47.1
		c0.5-9.7-5.7-32.7-13.4-49.4c-7.6-17.8-13.8-42.9-13.1-55.9c0.7-12.9-2.3-35.8-7.9-52.3c-4.5-15.4-14.2-75.4-20.6-134
		c-13.6-122.9-23.6-138.5-89.8-152c-26.8-4.8-54.4-13.9-60.5-19.6c-9.2-8.1-166.3-79.5-227.6-103.5
		c-28.5-11.3-103.7-78.2-102.9-92.2c0.4-6.5,5.4-19.1,11.3-27.4c12.9-18.7,66-2.8,64.8,18.7c-0.5,8.6,5.6,16.5,14.2,17
		c8.6,0.5,57.1,22.7,108.5,50.3c50.3,27.6,118.6,62.8,150.1,79.7c31.5,16.9,69.9,43.9,86.3,59.9c30.5,33,30.5,33,21.5-56
		c-25.8-254.3-32.6-538.8-14.7-626.5c8.7-40.5,15.7-49.9,37.6-54.1c45.9-9.3,49.3,7.1,38.9,174c-6.3,93.6-6.7,196.3-0.3,257.1
		c5.5,56.5,13.5,146.6,16.9,199.8c19.1,314.4,62.5,525.4,209.6,1005.8c18.3,60.4,38.3,126.4,43.7,146.2
		c5.4,18.7,13.2,35.3,17.5,35.6c5.4,0.3,8.2,8.1,7.7,16.7c-2.1,36.7,117.8,211.9,252.8,369.6c197.7,232.5,215.5,261.6,165.5,285.9
		C8153.6,3119.9,8148.2,3119.5,8109.5,3095.8z M5627.3,3107.4c-20-8.1-48.9-18.9-62.6-25.6c-13.7-6.7-72.8-27-131.8-44.8
		c-124.3-39.6-312.3-114.9-507.6-202.9c-75.1-34.7-180.3-81.4-231.6-102.8c-51.3-21.5-105.2-45.5-119-50.9
		c-103.9-47.9-176.5-80.1-313-137.6c-41.4-16.2-76.3-34.7-78.8-39.7c-2.3-6.3-9.8-10.3-17.5-10.6c-11.4-0.2-74-27.1-216.6-93.7
		c-27.5-13.2-74-30.8-104.1-40.4c-28.8-9.5-58.8-25.4-66.2-35.8c-7.4-9-19.8-16.9-27.4-17.1c-7.6-0.2-50.2-17.6-95.2-38.9
		c-131.4-61.3-289.2-130.7-376.9-166.9c-45.1-17.5-129.1-51.1-188-75.3c-59-22.9-122.7-51-144.1-60.3c-45-20-280.8-114.1-445-177.4
		c-65.2-24.3-130.4-49.8-144.2-56.5c-36.3-17.3-232.1-82.6-246.1-82.9c-6.3-0.1-32.7-9.6-59-21.6c-25-12-55.1-24-65.2-26.8
		c-10.1-1.5-50.3-13.8-87.9-26.1c-118-38.2-554.2-154.6-660-177.4c-241.7-52.5-467.6-74.2-692.9-69.4c-119,3.5-246.9,5.6-283.5,4.7
		c-64.5-0.2-67.1,0.9-60.1,30.2s5.6,30.5-53.6,20.3c-139.9-22.3-102.5-108.7,54.9-127.8c29.2-4.3,64.8-14.9,80.3-23.4
		c15.4-9.7,30.6-12,34.3-6.8c3.6,6.4,39,7.3,79.6,3.2s122.9-7.3,183.6-5.9c69.5,0.4,111.4-3.8,114.2-12.5
		c4.1-11.3,12.9-11.1,32.8,0.8c15,9.3,33.9,12.2,40.3,8.6c7.6-3.6,12.7-2.2,12.5,4.1c-0.1,6.3,55.3,16.5,123.4,21.9
		c66.9,6.7,174.1,21.8,235.7,33.4c63,12.9,142.3,28.6,176.3,34.5c83.1,15.8,569.5,155.1,728.9,208.1c69,23.1,143.1,47.6,165.8,53.2
		c52.8,15.1,341.1,127,511.6,196.7c76.4,32.1,185.5,76.4,244.4,98.1c243.2,91.7,646.6,263.1,807.9,344.1
		c35.1,17.2,132.6,62.6,219.1,100c86.4,38.7,212.9,94.8,281.7,126.8s165.3,73.5,212.9,93.5c48.9,18.9,124,52.3,169,73.5
		c228.9,109.1,839.1,361.3,873.2,362c16.4,0.4-0.7-24-20.9-29.5c-31.4-8.3-33.3-34.9-1.8-34.2c24,0.6-5.6-28-76.8-71.4
		c-32.4-21-36.1-22.4-29.1-3.2c11.8,33.2,3.2,29.2-158.8-75.8c-83.5-53.8-178.3-113-213.2-131.5c-33.6-19.8-79.8-46.2-101-59.3
		c-19.9-13.1-51.2-29.1-67.5-34.5c-16.3-5.4-68.8-34.5-117.3-64.7c-48.6-30.2-112.3-65.9-141.1-79.2c-30-14.7-53.7-30.4-53.6-36.7
		c0.1-5-6.1-10.3-13.7-10.4c-26.6-0.6-125.2-54.7-132.3-72.7c-3.5-10.2-15.9-19.3-28.6-19.7c-12.7-0.4-28.8-9.5-37.5-19.8
		c-8.6-10.3-23.6-19.6-34.9-19.8c-10.1-0.2-25.1-9.5-32.4-21c-7.4-10.3-24.9-20.9-38.7-23.7c-13.8-2.8-26.3-10.8-26.1-18.3
		c-1.1-8.9-2-21.6-3.2-29.2c-1.1-10.2-8.7-9-22.9,2c-16.8,13.5-21.8,13.4-25.3,2c-3.6-8.9-13.5-16.8-22.4-17
		c-10.1-0.2-20.2-5.5-23.8-12c-3.6-6.4,15.4-9.7,42-7.9c53,3.8,94.1,30,81,49.9c-5.3,7.5,1.1,10.2,17.6,5.5
		c14.1-4.7,29.2-1.9,34,5.9c3.6,6.4,18.6,13.1,32.6,13.4c12.7,0.4,23.9,4.3,23.8,10.7c-0.1,5,26,22.2,59.8,39.4
		c32.5,15.9,67.5,35.8,77.5,41c10,6.6,126.1,68.7,256.1,137.6c486.1,256.8,644.5,351.6,808.4,485.8c46,37.7,108,88.5,139,112.1
		c29.8,23.4,60.7,53.3,66.8,66.1C5773,3096.9,5700.1,3133.1,5627.3,3107.4z M5417.7,2887.7c-3.6-6.4,1.5-12.7,11.7-12.4
		c11.4,0.2,20,6.8,19.9,13.1c-0.2,7.6-5.4,12.5-11.7,12.4C5430,2900.7,5421.2,2895.5,5417.7,2887.7z M8732.6,2723.2
		c-28.7-29.4-45-55.3-83.7-132.4c-20.2-39.4-68.5-126.9-106.8-193.7c-38.3-66.8-75.1-135.5-80.3-152.6
		c-5.2-17.1-34.8-87.2-64.7-156.1c-60.5-139.2-116.7-281.8-114.4-290c0.9-3.1-6.4-20.9-16.9-39.5c-10.5-18.7-17.8-36.4-16.7-40.5
		c1.2-4.1-7.1-26.7-17.6-48.7c-18.1-43.3-28.8-68.6-87.4-223c-48.4-130.2-208.9-404.1-295.5-507c-115-136.7-238.2-233-330.5-259
		c-49.9-14-67.2,0.1-56.4,41.3c9.6,37.5-6.5,58.7-18.6,26.1c-4.6-11.4-16.7-28.2-26.3-37.7c-32.6-31.6-23.1-77.2,18.8-94.5
		c80-33.5,182,6.4,330.6,131.3c78.2,64.7,192.5,199.9,207.6,245.7c2.4,7.4,8.1,11.3,12.3,7.9c5-1.9,2.6-25-4.5-51.7
		c-23.4-76.1-25.9-178.7-7.6-247.7c19-75.3,37.1-96,95.5-112.1c83.2-24.8,230.8,56,278,151.1c38.3,74.7,12.7,82-58.6,17.1
		c-66-60.1-145-98-187.7-89.9c-31.9,5.5-35.1,9.2-49.6,64.5c-27.2,104.4,0.6,236.7,116.6,560.8c13.7,38.6,80.5,163.9,148.4,277.2
		c296.3,495.9,410.9,717.7,475.9,916.5c60.3,184,55.3,273.4-16.1,260C8762.3,2745,8742.9,2734,8732.6,2723.2z M8770.9,2623
		c-7-34.5-17-71-22.2-80.2c-5.3-9.3-14.7-43.4-22.4-75.8c-7.4-33.5-16.5-60.7-20.7-61.9c-4.1-1.2-21.2-36.2-38.5-78.1
		c-30.5-74.7-321.3-606.1-332.7-609.3c-19.7-5.6-8.6,42.4,35.4,149c27.1,67,54.3,137.5,59.3,155.7c6,18.5,14.5,40,19.3,46.9
		c4.5,8,27.7,57.1,52,109.9c24.3,52.8,46,99.2,49.3,103.6c3.2,4.2,22.3,44.4,42.9,90.5c42.9,98.4,127.1,248.8,140.6,252.6
		c6.2,1.8,8.3,10.2,5.7,19.5c-2.3,8.3,0.4,14.7,6.7,12c6.1-1.6,12.8,2.5,15.1,9.9c1.6,6.1,8.5,13.6,13.7,15.1
		C8780.6,2684.1,8779.3,2656.8,8770.9,2623z M4052.1,2046c0.1-6.3,9.1-12.4,19.2-12.2c10.1,0.2,18.9,6.8,18.6,13.1
		c-0.2,7.6-9.1,12.4-19.2,12.2C4060.7,2058.9,4051.9,2053.7,4052.1,2046z M3993.2,2025.8c-3.5-11.5-3.3-24.1,1.9-27.8
		c9-8.7,45,21.3,44.7,36.5C4039.2,2053.4,4001.5,2046.2,3993.2,2025.8z M2387.9,1523.4c-9.5-25.6-25.3-51.2-32.8-56.4
		c-8.7-5.3-31.9-42.6-51.2-80.9c-19.3-38.5-48.4-91-64.4-115.4c-15.8-24.4-27.9-48.8-27.8-55.1c0.1-5-13.4-24.4-29.3-43.7
		c-33.3-37.5-143.3-256.4-169.2-338c-23.6-72.7-22.3-130.8,4.3-183.3c35.8-70,59.4-50.5,60.8,48.2c0.8,72.1,9,102.7,59.6,210.2
		c57.8,125.3,138.1,261.3,206.8,354c104.3,137.9,167.8,292.4,119.7,291.2c-10.1-0.2-27.9,3.2-38.1,6.7
		C2411,1565.8,2401,1555.4,2387.9,1523.4z M10872.3,711.7c12.2,35.6,72.9,172.3,145.7,258.5c108.3,130.8,187.2,197.4,393.8,335.2
		c114.1,76.6,362.6,233.9,390.4,247.6c13.8,6.8,25.9,21,26.6,31.2c-0.4,18.9-31,16.7-85.3-5.9c-11-5-46.2-24-78.4-42
		c-32.2-18.1-92-50-132.5-70.2c-314.9-162.9-578.4-392.9-680.1-594.4v0c-5.6-11-21.9-9-24.7,3l-10.4,43.8
		c-16.1,72.7-19.8,78.5-38.6,73.7c-13.6-3.4-27.1-29.1-42.8-82c-19.2-69.4-56.8-168.4-92.6-208.4c-9.5-10.3-25-35-62.5,29.2
		c-31.1,42.3-8.3,33.4-24.5,115c-17.2,81.3-19.3,85.2-42,82.8c-13.1-1-30.9,3.3-39.2,10.1c-28.6,20.6-102.8-7-160-58.1
		c-113.4-102-81.1-260.8,54.5-264.4c40.6-2.1,70.4,21.1,105.2,81.1c28.6,49.5,31.8,50.3,55.7,17.4c45.8-61.8,115.2-201.3,183.9,39.6
		c4.5,15.9,11.5,31.1,20.9,44.7c15.7,22.7,28.7,39.2,32,40c11.5,2.9,16.8-141.5,6.9-177.4c-16-55,44.8-50.2,67-47.7
		c4.6,0.5,8.5,3.5,10.2,7.8c5.3,13.6,5.4,27.6,6.5,34.3 M10436.2,872.4c6.6-26.2-19.4-77.2-49.2-95.9l-34.5-22.1l34.9-19l34.9-19
		l-22-18.8c-38.9-35.4-79-8.9-83.9,54.5c-1.4,31.9,4.9,42.4,50,79.4C10420.3,874,10433.9,881.8,10436.2,872.4z M3603.3,1419.3
		c-164.5-93.7-425.3-348-471.1-456.8c-11.3-28.8-23.2-52.2-24.6-50.3c-2.4,1.8-0.5,50.1,4.5,108.4c11.6,174.8-23.1,212.5-96.2,104.2
		c-24.4-36-51.5-75.8-60.6-89.1c-14.5-20.5-41.5-68.9-95-170.2c-45.6-87-104.4-125.6-139.5-93.6c-21.3,19.9-60.8,123.3-59.7,155.1
		c1.9,25.3-4.3,31-53.2,46c-30.8,9.8-61,23-66.3,30c-16.8,19.4-67.2,5.9-101.7-28.4c-18.2-17.8-36.9-32.4-42.2-33.2
		c-24.6-3.4-73.5-66.9-88.6-114.8c-41.7-137.6,32.5-232.9,153.8-196.4c36.6,10.6,56.1,27.4,101.4,84.9
		c31.4,40.4,58.7,71.3,59.9,70.5c1.3-2,10-17.2,20.1-34.2c17.6-32.4,69.4-60,102.5-55.4c31,4.3,107.5,80.4,123.5,121.8
		c8,20.8,18.7,37.5,25.3,37.3c6.6-0.1,12.8,9.4,13.3,21.5c0.5,12,7.1,27.1,15,32.6c7.9,5.4,12.5,20.3,10.9,31
		c-1.7,11.8,2.4,22.1,7.7,22.8c6.4,0.9,31.7,30.5,56.2,65.6l45.7,63l0-46.8c-0.7-26.3-10.4-112.5-23.1-193.8
		c-28.4-187-29.2-204.5-10.5-221.5c33.6-30.1,52.7-11.1,72.1,68.8c36.6,159.8,163.1,330,394.2,531.1
		c191.6,165.1,328.9,219.1,418.7,160.8c31.2-20.7,45.4-13.3,40.5,22c-2.1,15-20.2,35.3-45.4,52.5
		C3827.5,1506.1,3729.4,1491.3,3603.3,1419.3z M2578,913.4c12.8-5.9,9.6-13.9-16.9-35.1c-18.5-15.6-38.5-28.2-46-29.3
		c-18.1-2.5-23.4-19.6-13.1-38.9c5.9-11.2,16-13,28.3-8c34.7,16.8,24.3-17.3-19-59.3c-68.8-69.5-138.9-66.2-149,6.4
		c-7.5,53.4,40.2,149.4,68,136.9c5.8-2.4,11.9,0.6,15.3,7.6C2452.5,907.8,2556,923.4,2578,913.4z M3966.2,1178.9
		c-19.6-23.5-74.4-80.8-121.1-127c-46.7-46.2-97.3-102.2-111.5-124.5c-14.2-23.3-35.9-44.6-48.7-48.5c-13.8-3.8-51.4-36.7-85.5-73.7
		c-52.7-57.2-99-87.3-100-63.5c-0.4,9.7,28.6,37.9,38.3,38.3c18.3,0.7,87.8,70.6,117.1,118.2c58.8,93.2,47.5,130.5-47.6,158.9
		c-61.2,19.1-78.2,10.8-168.1-85.8c-47.6-51.7-78.8-77.7-89.8-73.9c-24,7.7-27.8-6.6-31.3-105c-3.3-102.7,11.4-144.2,57.5-165
		c86.9-40.7,182.6,23.7,455.9,309.3c62.1,65.2,115.1,116,118.4,113.9c2.3-3.2-2.6-14.1-10.9-24.2c-22.6-29-57.6-122.2-56.3-152.4
		c0.5-14-3.2-26.1-8.6-26.3c-11.9-0.5-50.9-102.5-49.7-130.5c0.5-11.9-3.3-25-9.6-28.5c-18.9-12.6-9.5-58.7,14.8-70.6
		c34.1-15.9,59.8,16.5,77,97.1c8.3,34.9,18.8,69.8,24.8,77.7c11.2,14.5,273.1,158.1,278.8,151.9c2.2-1-2.6-15.2-9.6-30.7
		c-6.9-16.5-15.5-42.8-18-60.1c-2.5-17.3-9.7-53.3-15.1-80.5c-15.4-70.8-10.7-107.3,17.4-135.3c38.3-37.3,47.5-25.1,45.1,58
		c-1.7,41,2.3,99.5,8.7,128.9c5.3,30.5,11.9,77.1,14,105.4c3.5,45.5,8.6,53.3,48.6,79.8c70.5,46.1,143.9,124.7,135.4,145.9
		c-4.8,12.7-14.7,15.6-30.7,9.6c-21.3-8.5-41.2-21.1-159.8-104.9c-30.4-20.6-97.9-61.3-151.8-89.4c-53.9-29.3-103.4-59.3-111.7-66.2
		c-31.2-28.3-23.8,1.2,33.3,136.3c65,150.6,67,182,15.3,179.9C4011.9,1220.7,3991,1206.9,3966.2,1178.9z M3622.3,982.2
		c7.9-8.4-24.4-62.5-62.6-105.1c-40.3-43.8-99.3-78.6-136-80.1c-46.4-1.9-41.5,12.4,28.2,101.6
		C3504.3,963.3,3594.3,1006.9,3622.3,982.2z M3484.8,727.2c-1.5-15.2-12.1-19.9-43.4-21.3c-45.3-1.9-65.6,19.9-26,29.1
		C3471.1,748.1,3486.3,745.6,3484.8,727.2z M9685.9,950.7c-11.2-21-19.1-46.8-16.9-57.4s0.5-24.1-5.2-28.6
		c-4.6-4.3-10.1-4.3-11.5,2.1c-5,24.3-66.4,28.3-112.4,5.7c-55.3-25.6-77-48.8-108.5-110.2c-27.3-55.1-24.7-78.8,13.4-114
		c55.7-51.4,136.5-48.1,182.9,9.8c10.7,12.1,12.2,10.2,10.4-13.3c-1.2-15.7-4.6-74.7-7.1-132.4c-4.8-95.6-13.3-123.8-38.4-130
		c-4.2-0.9-34.6-24.7-66.2-53.1c-48.5-44.3-95.3-107.7-124.7-158.7c-15.4-26.7-26.9-55.5-32.6-85.8c-0.3-1.6-0.7-3.3-1.1-5.1
		c-8.7-37.7-12-76.4-7.4-114.8v0c1-8.3,4.7-16,10.4-22l34.5-35.9c82-83.5,153.7-78.8,250.2,14.7c10.9,11,19.1,24.8,18.1,30.1
		c-1.1,5.3,4.3,21.8,12.6,35.6c25.3,43.7,29.3,142.5,17.4,384.5c-1.1,27.3,1.9,55.4,5.7,63.9s3.7,19.5-1.7,25
		c-25.2,26.8,1.2,290.9,41.6,422.5c25.5,80.1,24.9,83.2,3.5,96.5C9720,999.5,9709,993.9,9685.9,950.7z M9597.3,812.6
		c-4-12.9-13.9-29.2-23.4-36.7c-13.1-11.5-13.3-15.9,0.5-24.1c11.4-7.6,14.8-8,12.9,1.5c-1.3,6.4,4.4,10.8,13.5,9.3
		c8-1.7,16.5,5.6,17.9,14.7c2.3,10.4,10.3,19.7,19.8,21.6c13.7,2.8,14.4-0.4,7.9-22.7c-16.5-48.5-33-70.5-54.1-74.9
		c-12.6-2.6-26.4-10.9-31.4-18.5c-11.7-17.9-65.8-1.4-81.8,23c-8.7,15.8,29.3,72,77.5,111.6C9590.6,845.4,9606.5,843.1,9597.3,812.6
		z M9636.7,300.9c0.1-38.5,2.2-81,3.1-96.3c2-15,1.6-34.9,0.2-44c-2.5-9.3-2.6-35.7-2.1-59.9c1.7-56.9-25.8-127.5-62.9-156
		c-43.6-34.3-61.3-34.5-101.6-4.2c-97.4,72.6-66.1,200.2,94.4,373.8C9639.2,390.7,9634.7,391.9,9636.7,300.9z M8599.6,1018.5
		c-4.2-4.4-7.1-17.4-6.8-30.4c0.5-20.5-0.6-20.5-14-2.5c-14.5,18-17.6,15.8-46.7-34.5c-17.7-29.6-35-71-38.9-91.6
		c-3.8-20.6-30.6-75.2-58.7-121.2c-43.7-71.2-49.7-88.6-38.6-101.3c28.8-32.8,66.1-12.5,164.1,91.3c24.3,24.3,133.4,111,179.1,141.3
		c28.7,19,43,6.4,19.9-19c-10.5-13.2-36.4-105.5-44.8-159.7c-9.4-57.4,20.3-83.7,91.5-82c65.8,1.5,85.6,30.1,27.1,39.5
		c-53.1,8.5-55.8,32.1-18,124.8c37.8,91.5,47.8,171.6,24.7,189.4c-39.6,32.5-172.9-37.5-226-118.6c-40.6-62.5-64.2-70.6-42.8-16.1
		c8.1,21.8,26.7,60,40.1,85.1c30,54.7,36.4,105.5,13.6,109.3C8614.5,1024.2,8603.8,1022.9,8599.6,1018.5z M9126.7,997.8
		c-6.4-5.8-30.7-16.5-53.2-24.7c-32.8-11.4-47.3-26.7-74.5-74.4c-19.2-33.9-33.6-64.6-32.4-69.9c0.9-4.2-4-32.8-10.7-63
		c-19.9-92.5-9.2-132.1,42.4-146.5c33-9.5,93.5,32.2,133.6,92.6c15.2,22,27.8,40.2,30,40.6c2.2,0.4,8.3-23.6,14.7-53.1
		c9.7-45.4,16.6-57.1,46.5-72.8c41.1-22.1,100.8-22.5,143.2,0.9c44.5,23.9,35.1,47.3-19.6,45.4c-24.4,0.3-57.9,7.4-72,16.6
		c-29,17-48.2,70.2-31.7,85.9c5.7,4.5,7.3,17.1,5.2,27.5c-2.5,11.6,0.9,42.1,6,69.7c9.2,39.5,7.3,53.4-5.8,68.3
		c-9.1,11.3-16.9,27.2-17.8,37C9229,1009.8,9156.4,1024,9126.7,997.8z M9161.9,946.9c1.1-5.3-104-117.2-111.4-118.8
		c-21.1-4.5,21.5,85.1,48.7,102C9115.9,940.3,9160.5,953.3,9161.9,946.9z M9170.7,874.9c-10.3-18.7-10.6-27.7-1.5-29
		c25-3.5,8.7-35.6-35.9-69.5c-23.7-18.3-57.1-47.6-74.5-64.5c-39.6-41.6-47.3-42.2-44.6-3c4.1,58.3,13.8,74.7,79.2,129.6
		C9168,903,9193.3,913.9,9170.7,874.9z M9820.7,691c0.8-32.4,36.5-78.6,64.5-78c31.3,0.7,85.5,37.6,130.6,89.4
		c38.9,45.2,40.1,40.9,20.5-90.2c-7.4-50.9-13.9-96.4-12.7-100.7c6.2-35.5-2.6-71.3-22.8-87.9c-56.2-44.5-138.1-139.2-153.4-176.3
		c-9.2-21.8-28.8-59-42.3-81.9C9775,114,9781.5,65.6,9825,6.1c58-80.7,177.3-61.7,212.9,33c13.2,34.8,44.7,256.8,41.6,297.7
		c-0.5,20.5-2.1,43.1-1.2,49.6c0.8,10.8,80.4,71,95.5,71.3c3.2,0.1,13.8,10,22.1,22.1s21.1,22.1,27.5,22.2
		c12.9,0.3,27.2,38.4,17.2,46.8c-8.8,8.4-88.4-51.7-88-66.8c0.2-7.6-7.2-14.2-15.9-14.4c-7.5-0.2-19.2-9.1-25.5-18.9
		c-20.6-40.4-24.8,0.5-10.8,139c6.8,78.9,14.8,151.4,16.8,160.1c2,8.7,6.7,35.8,11.6,59.6c3.8,23.8,15.8,63,26,85.9
		c24.6,54.5,24.3,68.6-3,81.9c-18.4,9.7-25.9,6.3-46.9-16.9c-15.8-17.6-28.6-24.4-33.1-17c-10.1,16-78.8-0.8-123.4-29.9
		c-46.7-32.4-77.2-67.6-93.4-111.2c-7.1-18.5-25.7-48.3-29.4-78 M10089.5,878.1c0.6-23.7-162.6-199.1-186.3-199.7
		c-12.9-0.3-14.2,8.3-9.7,46.2c8.4,56.3,14.7,64,70.2,91.2c25.6,11.4,62.9,34.9,83,51.6C10090,904,10088.9,904,10089.5,878.1z
		 M10020.2,333.7c-13.7-198.9-49.6-322.8-93.9-323.8c-23.7-0.6-59.3,43.9-72.3,90c-13,49.3-13.2,54.7,10,80.1
		c12.6,14.3,32.4,43.9,42.7,65.8s31,56.8,46.7,78.8c15.7,20.9,29.1,46,31.1,54.7c1.9,11.9,19.9,26.4,38.1,31.1
		C10024.9,411.5,10023.6,375.8,10020.2,333.7z"/>
</g>
</svg>
